{
	"asset":{
		"generator":"Khronos glTF Blender I/O v4.0.44",
		"version":"2.0"
	},
	"scene":0,
	"scenes":[
		{
			"name":"Scene",
			"nodes":[
				0,
				1,
				2,
				3,
				4,
				5,
				6
			]
		}
	],
	"nodes":[
		{
			"mesh":0,
			"name":"Gear",
			"rotation":[
				0,
				0.9949340224266052,
				0,
				0.1005299836397171
			],
			"scale":[
				0.5513084530830383,
				0.5513084530830383,
				0.5513084530830383
			],
			"translation":[
				2.6517248153686523,
				0.8390222191810608,
				-0.4846423268318176
			]
		},
		{
			"mesh":1,
			"name":"Gear.001",
			"rotation":[
				0,
				-0.9949340224266052,
				0,
				0.10053008049726486
			],
			"scale":[
				0.5513084530830383,
				0.5513084530830383,
				0.5513084530830383
			],
			"translation":[
				3.7195966243743896,
				0.8390222191810608,
				-1.0943799018859863
			]
		},
		{
			"mesh":2,
			"name":"Gear.002",
			"rotation":[
				0,
				0.7614660263061523,
				0,
				0.6482048034667969
			],
			"scale":[
				0.5513084530830383,
				0.3677324652671814,
				0.5513084530830383
			],
			"translation":[
				5.270650386810303,
				0.8390222191810608,
				-1.9847235679626465
			]
		},
		{
			"mesh":3,
			"name":"\u0422\u0435\u043a\u0441\u0442",
			"scale":[
				2.445316791534424,
				2.445316791534424,
				2.445316791534424
			],
			"translation":[
				-3.4631433486938477,
				0,
				-2.2237021923065186
			]
		},
		{
			"mesh":4,
			"name":"Gear.003",
			"rotation":[
				0,
				0.9949340224266052,
				0,
				0.1005299836397171
			],
			"scale":[
				0.5513084530830383,
				0.5513084530830383,
				0.5513084530830383
			],
			"translation":[
				-2.2827682495117188,
				-1.4035277366638184,
				-5.037590980529785
			]
		},
		{
			"mesh":5,
			"name":"Gear.004",
			"rotation":[
				0,
				-0.9949340224266052,
				0,
				0.1005299910902977
			],
			"scale":[
				0.5513084530830383,
				0.5513084530830383,
				0.5513084530830383
			],
			"translation":[
				-3.34952974319458,
				-1.4035277366638184,
				-4.425912857055664
			]
		},
		{
			"mesh":6,
			"name":"Gear.005",
			"rotation":[
				0,
				-0.9967513680458069,
				0,
				0.08054083585739136
			],
			"scale":[
				0.5513085126876831,
				0.3677324652671814,
				0.5513085126876831
			],
			"translation":[
				-4.898962020874023,
				-1.4035277366638184,
				-3.532750129699707
			]
		}
	],
	"meshes":[
		{
			"name":"Gear",
			"primitives":[
				{
					"attributes":{
						"POSITION":0,
						"NORMAL":1
					},
					"indices":2
				}
			]
		},
		{
			"name":"Gear.001",
			"primitives":[
				{
					"attributes":{
						"POSITION":3,
						"NORMAL":4
					},
					"indices":5
				}
			]
		},
		{
			"name":"Gear.002",
			"primitives":[
				{
					"attributes":{
						"POSITION":6,
						"NORMAL":7
					},
					"indices":8
				}
			]
		},
		{
			"name":"\u0422\u0435\u043a\u0441\u0442",
			"primitives":[
				{
					"attributes":{
						"POSITION":9,
						"NORMAL":10,
						"TEXCOORD_0":11
					},
					"indices":12
				}
			]
		},
		{
			"name":"Gear.003",
			"primitives":[
				{
					"attributes":{
						"POSITION":13,
						"NORMAL":14
					},
					"indices":2
				}
			]
		},
		{
			"name":"Gear.004",
			"primitives":[
				{
					"attributes":{
						"POSITION":15,
						"NORMAL":16
					},
					"indices":5
				}
			]
		},
		{
			"name":"Gear.005",
			"primitives":[
				{
					"attributes":{
						"POSITION":17,
						"NORMAL":18
					},
					"indices":8
				}
			]
		}
	],
	"accessors":[
		{
			"bufferView":0,
			"componentType":5126,
			"count":888,
			"max":[
				1.187305212020874,
				0.4699999690055847,
				1.187305212020874
			],
			"min":[
				-1.187305212020874,
				-0.4699999690055847,
				-1.187305212020874
			],
			"type":"VEC3"
		},
		{
			"bufferView":1,
			"componentType":5126,
			"count":888,
			"type":"VEC3"
		},
		{
			"bufferView":2,
			"componentType":5123,
			"count":2016,
			"type":"SCALAR"
		},
		{
			"bufferView":3,
			"componentType":5126,
			"count":888,
			"max":[
				1.209996223449707,
				0.4699999690055847,
				1.209996223449707
			],
			"min":[
				-1.209996223449707,
				-0.4699999690055847,
				-1.209996223449707
			],
			"type":"VEC3"
		},
		{
			"bufferView":4,
			"componentType":5126,
			"count":888,
			"type":"VEC3"
		},
		{
			"bufferView":5,
			"componentType":5123,
			"count":2016,
			"type":"SCALAR"
		},
		{
			"bufferView":6,
			"componentType":5126,
			"count":1776,
			"max":[
				2.2203869819641113,
				0.9700000286102295,
				2.2203869819641113
			],
			"min":[
				-2.2203869819641113,
				-0.9700000286102295,
				-2.2203869819641113
			],
			"type":"VEC3"
		},
		{
			"bufferView":7,
			"componentType":5126,
			"count":1776,
			"type":"VEC3"
		},
		{
			"bufferView":8,
			"componentType":5123,
			"count":4032,
			"type":"SCALAR"
		},
		{
			"bufferView":9,
			"componentType":5126,
			"count":445,
			"max":[
				2.940854787826538,
				0,
				0.009572649374604225
			],
			"min":[
				0.057094015181064606,
				0,
				-0.5029059648513794
			],
			"type":"VEC3"
		},
		{
			"bufferView":10,
			"componentType":5126,
			"count":445,
			"type":"VEC3"
		},
		{
			"bufferView":11,
			"componentType":5126,
			"count":445,
			"type":"VEC2"
		},
		{
			"bufferView":12,
			"componentType":5123,
			"count":1305,
			"type":"SCALAR"
		},
		{
			"bufferView":13,
			"componentType":5126,
			"count":888,
			"max":[
				1.187305212020874,
				0.4699999690055847,
				1.187305212020874
			],
			"min":[
				-1.187305212020874,
				-0.4699999690055847,
				-1.187305212020874
			],
			"type":"VEC3"
		},
		{
			"bufferView":14,
			"componentType":5126,
			"count":888,
			"type":"VEC3"
		},
		{
			"bufferView":15,
			"componentType":5126,
			"count":888,
			"max":[
				1.209996223449707,
				0.4699999690055847,
				1.209996223449707
			],
			"min":[
				-1.209996223449707,
				-0.4699999690055847,
				-1.209996223449707
			],
			"type":"VEC3"
		},
		{
			"bufferView":16,
			"componentType":5126,
			"count":888,
			"type":"VEC3"
		},
		{
			"bufferView":17,
			"componentType":5126,
			"count":1776,
			"max":[
				2.2203869819641113,
				0.9700000286102295,
				2.2203869819641113
			],
			"min":[
				-2.2203869819641113,
				-0.9700000286102295,
				-2.2203869819641113
			],
			"type":"VEC3"
		},
		{
			"bufferView":18,
			"componentType":5126,
			"count":1776,
			"type":"VEC3"
		}
	],
	"bufferViews":[
		{
			"buffer":0,
			"byteLength":10656,
			"byteOffset":0,
			"target":34962
		},
		{
			"buffer":0,
			"byteLength":10656,
			"byteOffset":10656,
			"target":34962
		},
		{
			"buffer":0,
			"byteLength":4032,
			"byteOffset":21312,
			"target":34963
		},
		{
			"buffer":0,
			"byteLength":10656,
			"byteOffset":25344,
			"target":34962
		},
		{
			"buffer":0,
			"byteLength":10656,
			"byteOffset":36000,
			"target":34962
		},
		{
			"buffer":0,
			"byteLength":4032,
			"byteOffset":46656,
			"target":34963
		},
		{
			"buffer":0,
			"byteLength":21312,
			"byteOffset":50688,
			"target":34962
		},
		{
			"buffer":0,
			"byteLength":21312,
			"byteOffset":72000,
			"target":34962
		},
		{
			"buffer":0,
			"byteLength":8064,
			"byteOffset":93312,
			"target":34963
		},
		{
			"buffer":0,
			"byteLength":5340,
			"byteOffset":101376,
			"target":34962
		},
		{
			"buffer":0,
			"byteLength":5340,
			"byteOffset":106716,
			"target":34962
		},
		{
			"buffer":0,
			"byteLength":3560,
			"byteOffset":112056,
			"target":34962
		},
		{
			"buffer":0,
			"byteLength":2610,
			"byteOffset":115616,
			"target":34963
		},
		{
			"buffer":0,
			"byteLength":10656,
			"byteOffset":118228,
			"target":34962
		},
		{
			"buffer":0,
			"byteLength":10656,
			"byteOffset":128884,
			"target":34962
		},
		{
			"buffer":0,
			"byteLength":10656,
			"byteOffset":139540,
			"target":34962
		},
		{
			"buffer":0,
			"byteLength":10656,
			"byteOffset":150196,
			"target":34962
		},
		{
			"buffer":0,
			"byteLength":21312,
			"byteOffset":160852,
			"target":34962
		},
		{
			"buffer":0,
			"byteLength":21312,
			"byteOffset":182164,
			"target":34962
		}
	],
	"buffers":[
		{
			"byteLength":203476,
			"uri":"FEFU_AR_noanim.bin"
		}
	]
}
