{  "asset": {    "version": "2.0",    "generator": "THREE.GLTFExporter"  },  "scenes": [    {      "name": "AuxScene",      "nodes": [        3      ]    }  ],  "scene": 0,  "nodes": [    {      "mesh": 0    },    {      "mesh": 1    },    {      "mesh": 2    },    {      "children": [        0,        1,        2      ]    }  ],  "bufferViews": [    {      "buffer": 0,      "byteOffset": 0,      "byteLength": 110592,      "target": 34962,      "byteStride": 12    },    {      "buffer": 0,      "byteOffset": 110592,      "byteLength": 110592,      "target": 34962,      "byteStride": 12    },    {      "buffer": 0,      "byteOffset": 221184,      "byteLength": 3456,      "target": 34962,      "byteStride": 12    },    {      "buffer": 0,      "byteOffset": 224640,      "byteLength": 3456,      "target": 34962,      "byteStride": 12    },    {      "buffer": 0,      "byteOffset": 228096,      "byteLength": 2304,      "target": 34962,      "byteStride": 8    },    {      "buffer": 0,      "byteOffset": 230400,      "byteLength": 13824,      "target": 34962,      "byteStride": 12    },    {      "buffer": 0,      "byteOffset": 244224,      "byteLength": 13824,      "target": 34962,      "byteStride": 12    },    {      "buffer": 0,      "byteOffset": 258048,      "byteLength": 9216,      "target": 34962,      "byteStride": 8    }  ],  "buffers": [    {      "byteLength": 267264,      "uri": "data:application/octet-stream;base64,"    }  ],  "accessors": [    {      "bufferView": 0,      "componentType": 5126,      "count": 9216,      "max": [        21.483877182006836,        44.37176513671875,        21.7100830078125      ],      "min": [        -21.483875274658203,        -44.371768951416016,        -21.7100830078125      ],      "type": "VEC3"    },    {      "bufferView": 1,      "componentType": 5126,      "count": 9216,      "max": [        0.999755859375,        0.9848322868347168,        0.999908447265625      ],      "min": [        -0.999725341796875,        -0.9987792372703552,        -0.999908447265625      ],      "type": "VEC3"    },    {      "bufferView": 2,      "componentType": 5126,      "count": 288,      "max": [        12.441234588623047,        -29.46597671508789,        1.4511487483978271      ],      "min": [        -12.331869125366211,        -33.334320068359375,        -2.4171900749206543      ],      "type": "VEC3"    },    {      "bufferView": 3,      "componentType": 5126,      "count": 288,      "max": [        1,        1,        1      ],      "min": [        -1,        -1,        -1      ],      "type": "VEC3"    },    {      "bufferView": 4,      "componentType": 5126,      "count": 288,      "max": [        0.8749961853027344,        1      ],      "min": [        0.12500381469726562,        0      ],      "type": "VEC2"    },    {      "bufferView": 5,      "componentType": 5126,      "count": 1152,      "max": [        6.504161834716797,        -32.84534454345703,        -3.843047618865967      ],      "min": [        -6.507103443145752,        -39.46989440917969,        -10.599824905395508      ],      "type": "VEC3"    },    {      "bufferView": 6,      "componentType": 5126,      "count": 1152,      "max": [        1,        1,        1      ],      "min": [        -1,        -1,        -1      ],      "type": "VEC3"    },    {      "bufferView": 7,      "componentType": 5126,      "count": 1152,      "max": [        0.8749961853027344,        1      ],      "min": [        0.12500381469726562,        0      ],      "type": "VEC2"    }  ],  "materials": [    {      "pbrMetallicRoughness": {        "baseColorFactor": [          0.6038273388475408,          0.6038273388475408,          0.6038273388475408,          1        ],        "metallicFactor": 0.5,        "roughnessFactor": 0.5      },      "doubleSided": true,      "name": "mat0"    },    {      "pbrMetallicRoughness": {        "baseColorFactor": [          0,          0,          0,          1        ],        "metallicFactor": 0.5,        "roughnessFactor": 0.5      },      "doubleSided": true,      "name": "mat1"    },    {      "pbrMetallicRoughness": {        "metallicFactor": 0.5,        "roughnessFactor": 0.5      },      "doubleSided": true,      "name": "mat2"    }  ],  "meshes": [    {      "primitives": [        {          "mode": 4,          "attributes": {            "POSITION": 0,            "NORMAL": 1          },          "material": 0        }      ]    },    {      "primitives": [        {          "mode": 4,          "attributes": {            "POSITION": 2,            "NORMAL": 3,            "TEXCOORD_0": 4          },          "material": 1        }      ]    },    {      "primitives": [        {          "mode": 4,          "attributes": {            "POSITION": 5,            "NORMAL": 6,            "TEXCOORD_0": 7          },          "material": 2        }      ]    }  ]}