{
	"asset":{
		"generator":"Khronos glTF Blender I/O v4.0.44",
		"version":"2.0"
	},
	"scene":0,
	"scenes":[
		{
			"name":"Scene",
			"nodes":[
				0
			]
		}
	],
	"nodes":[
		{
			"mesh":0,
			"name":"\u0422\u0435\u043a\u0441\u0442",
			"scale":[
				2.445316791534424,
				2.445316791534424,
				2.445316791534424
			],
			"translation":[
				-3.4631433486938477,
				0,
				-2.2237021923065186
			]
		}
	],
	"meshes":[
		{
			"name":"\u0422\u0435\u043a\u0441\u0442",
			"primitives":[
				{
					"attributes":{
						"POSITION":0,
						"NORMAL":1,
						"TEXCOORD_0":2
					},
					"indices":3
				}
			]
		}
	],
	"accessors":[
		{
			"bufferView":0,
			"componentType":5126,
			"count":9791,
			"max":[
				4.07437801361084,
				0.4889846444129944,
				0.9839639663696289
			],
			"min":[
				-1.0899200439453125,
				-0.7198364734649658,
				-1.423518419265747
			],
			"type":"VEC3"
		},
		{
			"bufferView":1,
			"componentType":5126,
			"count":9791,
			"type":"VEC3"
		},
		{
			"bufferView":2,
			"componentType":5126,
			"count":9791,
			"type":"VEC2"
		},
		{
			"bufferView":3,
			"componentType":5123,
			"count":21408,
			"type":"SCALAR"
		}
	],
	"bufferViews":[
		{
			"buffer":0,
			"byteLength":117492,
			"byteOffset":0,
			"target":34962
		},
		{
			"buffer":0,
			"byteLength":117492,
			"byteOffset":117492,
			"target":34962
		},
		{
			"buffer":0,
			"byteLength":78328,
			"byteOffset":234984,
			"target":34962
		},
		{
			"buffer":0,
			"byteLength":42816,
			"byteOffset":313312,
			"target":34963
		}
	],
	"buffers":[
		{
			"byteLength":356128,
			"uri":"FEFU_AR_noanim_joinet.bin"
		}
	]
}
